<svg width="139" height="35" viewBox="0 0 139 35" fill="none" xmlns="http://www.w3.org/2000/svg">
<path fill-rule="evenodd" clip-rule="evenodd" d="M13.9019 32.037C21.5798 32.037 27.8039 25.8188 27.8039 18.1481C27.8039 10.4775 21.5798 4.25925 13.9019 4.25925C6.22411 4.25925 0 10.4775 0 18.1481C0 25.8188 6.22411 32.037 13.9019 32.037ZM13.9019 18.1481C16.4612 18.1481 18.5359 16.0754 18.5359 13.5185C18.5359 10.9616 16.4612 8.88888 13.9019 8.88888C11.3427 8.88888 9.26797 10.9616 9.26797 13.5185C9.26797 16.0754 11.3427 18.1481 13.9019 18.1481Z" fill="black"/>
<path d="M52.7816 18.5701C52.7816 20.8612 52.3469 22.8104 51.4775 24.4176C50.6149 26.0248 49.4375 27.2525 47.9451 28.1005C46.4596 28.9418 44.7893 29.3624 42.9341 29.3624C41.0652 29.3624 39.388 28.9383 37.9025 28.0903C36.417 27.2422 35.243 26.0146 34.3804 24.4073C33.5179 22.8001 33.0866 20.8544 33.0866 18.5701C33.0866 16.2789 33.5179 14.3298 34.3804 12.7225C35.243 11.1153 36.417 9.89109 37.9025 9.04987C39.388 8.2018 41.0652 7.77777 42.9341 7.77777C44.7893 7.77777 46.4596 8.2018 47.9451 9.04987C49.4375 9.89109 50.6149 11.1153 51.4775 12.7225C52.3469 14.3298 52.7816 16.2789 52.7816 18.5701ZM48.2737 18.5701C48.2737 17.086 48.0512 15.8344 47.6062 14.8153C47.1681 13.7963 46.5486 13.0235 45.7476 12.4968C44.9467 11.9702 44.0089 11.7069 42.9341 11.7069C41.8593 11.7069 40.9215 11.9702 40.1205 12.4968C39.3196 13.0235 38.6966 13.7963 38.2517 14.8153C37.8135 15.8344 37.5945 17.086 37.5945 18.5701C37.5945 20.0542 37.8135 21.3058 38.2517 22.3248C38.6966 23.3438 39.3196 24.1167 40.1205 24.6433C40.9215 25.1699 41.8593 25.4332 42.9341 25.4332C44.0089 25.4332 44.9467 25.1699 45.7476 24.6433C46.5486 24.1167 47.1681 23.3438 47.6062 22.3248C48.0512 21.3058 48.2737 20.0542 48.2737 18.5701Z" fill="black"/>
<path d="M58.9134 29.3316C57.7154 29.3316 56.6304 29.0238 55.6583 28.4083C54.693 27.7859 53.9263 26.8729 53.3581 25.6692C52.7968 24.4586 52.5161 22.9745 52.5161 21.2169C52.5161 19.4113 52.8071 17.9101 53.3889 16.7132C53.9708 15.5095 54.7444 14.6102 55.7096 14.0151C56.6817 13.4133 57.7462 13.1124 58.9031 13.1124C59.7862 13.1124 60.5221 13.2628 61.1108 13.5638C61.7064 13.8578 62.1856 14.2272 62.5484 14.6717C62.9181 15.1094 63.1988 15.5403 63.3904 15.9643H63.5239V8.06502H67.888V29.0751H63.5753V26.5514H63.3904C63.1851 26.9892 62.8941 27.4234 62.5176 27.8543C62.148 28.2784 61.6653 28.6306 61.0698 28.911C60.481 29.1914 59.7622 29.3316 58.9134 29.3316ZM60.2996 25.8538C61.0047 25.8538 61.6003 25.6623 62.0863 25.2793C62.5792 24.8895 62.9557 24.3458 63.2159 23.6482C63.4829 22.9506 63.6164 22.1333 63.6164 21.1963C63.6164 20.2594 63.4863 19.4455 63.2261 18.7547C62.966 18.064 62.5895 17.5305 62.0966 17.1543C61.6037 16.7782 61.0047 16.5901 60.2996 16.5901C59.5808 16.5901 58.975 16.785 58.4821 17.1749C57.9892 17.5647 57.6161 18.105 57.3628 18.7958C57.1096 19.4865 56.9829 20.2867 56.9829 21.1963C56.9829 22.1128 57.1096 22.9232 57.3628 23.6277C57.623 24.3253 57.9961 24.8724 58.4821 25.2691C58.975 25.6589 59.5808 25.8538 60.2996 25.8538Z" fill="black"/>
<path d="M71.2936 34.9842C70.7391 34.9842 70.2188 34.9398 69.7328 34.8508C69.2536 34.7688 68.8565 34.6628 68.5416 34.5328L69.5274 31.2705C70.0408 31.4278 70.5029 31.5133 70.9136 31.527C71.3312 31.5407 71.6906 31.4449 71.9918 31.2397C72.2999 31.0346 72.5498 30.6858 72.7414 30.1933L72.9982 29.5265L67.3402 13.3175H71.9405L75.2059 24.8895H75.3702L78.6664 13.3175H83.2974L77.1672 30.7781C76.8728 31.6262 76.4723 32.3648 75.9657 32.994C75.466 33.63 74.8328 34.119 74.0661 34.461C73.2994 34.8098 72.3752 34.9842 71.2936 34.9842Z" fill="black"/>
<path d="M95.7675 17.8109L91.7628 18.0571C91.6943 17.7152 91.5471 17.4074 91.3212 17.1338C91.0953 16.8534 90.7975 16.6311 90.4279 16.467C90.0651 16.296 89.6304 16.2105 89.1238 16.2105C88.4461 16.2105 87.8744 16.3542 87.4089 16.6414C86.9434 16.9218 86.7107 17.298 86.7107 17.7699C86.7107 18.146 86.8613 18.4641 87.1625 18.724C87.4637 18.9838 87.9806 19.1924 88.713 19.3497L91.5677 19.9242C93.1011 20.2388 94.2443 20.7449 94.9973 21.4425C95.7504 22.1401 96.1269 23.0566 96.1269 24.1919C96.1269 25.2246 95.8222 26.1308 95.213 26.9105C94.6106 27.6902 93.7822 28.2989 92.728 28.7366C91.6806 29.1675 90.4724 29.3829 89.1032 29.3829C87.0153 29.3829 85.3518 28.9486 84.1128 28.08C82.8805 27.2046 82.1583 26.0146 81.9461 24.5099L86.2486 24.2842C86.3787 24.9203 86.6936 25.4059 87.1933 25.741C87.693 26.0693 88.3331 26.2334 89.1135 26.2334C89.8802 26.2334 90.4963 26.0864 90.9618 25.7923C91.4342 25.4914 91.6738 25.105 91.6806 24.633C91.6738 24.2364 91.5061 23.9115 91.1775 23.6585C90.8489 23.3986 90.3423 23.2002 89.6577 23.0634L86.9263 22.5197C85.386 22.212 84.2394 21.6785 83.4864 20.9193C82.7402 20.1602 82.3671 19.1924 82.3671 18.0161C82.3671 17.0039 82.6409 16.1319 83.1886 15.4001C83.7431 14.6683 84.5201 14.1041 85.5195 13.7074C86.5259 13.3107 87.7033 13.1124 89.0519 13.1124C91.044 13.1124 92.6116 13.533 93.7549 14.3742C94.9049 15.2154 95.5758 16.361 95.7675 17.8109Z" fill="black"/>
<path d="M109.113 17.8109L105.108 18.0571C105.04 17.7152 104.893 17.4074 104.667 17.1338C104.441 16.8534 104.143 16.6311 103.773 16.467C103.41 16.296 102.976 16.2105 102.469 16.2105C101.791 16.2105 101.22 16.3542 100.754 16.6414C100.289 16.9218 100.056 17.298 100.056 17.7699C100.056 18.146 100.207 18.4641 100.508 18.724C100.809 18.9838 101.326 19.1924 102.058 19.3497L104.913 19.9242C106.447 20.2388 107.59 20.7449 108.343 21.4425C109.096 22.1401 109.472 23.0566 109.472 24.1919C109.472 25.2246 109.168 26.1308 108.558 26.9105C107.956 27.6902 107.128 28.2989 106.073 28.7366C105.026 29.1675 103.818 29.3829 102.449 29.3829C100.361 29.3829 98.6973 28.9486 97.4582 28.08C96.226 27.2046 95.5038 26.0146 95.2915 24.5099L99.594 24.2842C99.7241 24.9203 100.039 25.4059 100.539 25.741C101.038 26.0693 101.679 26.2334 102.459 26.2334C103.226 26.2334 103.842 26.0864 104.307 25.7923C104.78 25.4914 105.019 25.105 105.026 24.633C105.019 24.2364 104.851 23.9115 104.523 23.6585C104.194 23.3986 103.688 23.2002 103.003 23.0634L100.272 22.5197C98.7315 22.212 97.5848 21.6785 96.8318 20.9193C96.0856 20.1602 95.7125 19.1924 95.7125 18.0161C95.7125 17.0039 95.9864 16.1319 96.534 15.4001C97.0885 14.6683 97.8655 14.1041 98.865 13.7074C99.8713 13.3107 101.049 13.1124 102.397 13.1124C104.389 13.1124 105.957 13.533 107.1 14.3742C108.25 15.2154 108.921 16.361 109.113 17.8109Z" fill="black"/>
<path d="M116.523 29.3829C114.901 29.3829 113.504 29.0546 112.334 28.398C111.17 27.7346 110.273 26.7977 109.643 25.5871C109.013 24.3697 108.699 22.9301 108.699 21.2681C108.699 19.6472 109.013 18.2247 109.643 17.0005C110.273 15.7762 111.16 14.8222 112.303 14.1383C113.453 13.4543 114.801 13.1124 116.349 13.1124C117.389 13.1124 118.358 13.2799 119.255 13.6151C120.158 13.9433 120.945 14.4392 121.616 15.1026C122.294 15.766 122.821 16.6004 123.198 17.6057C123.574 18.6043 123.762 19.7738 123.762 21.1143V22.3145H110.444V19.6062H119.645C119.645 18.977 119.508 18.4196 119.234 17.934C118.96 17.4484 118.58 17.0689 118.094 16.7953C117.615 16.5149 117.057 16.3747 116.42 16.3747C115.756 16.3747 115.168 16.5286 114.654 16.8363C114.148 17.1373 113.751 17.5442 113.463 18.0571C113.176 18.5632 113.028 19.1275 113.022 19.7498V22.3248C113.022 23.1045 113.165 23.7781 113.453 24.3458C113.747 24.9135 114.161 25.3512 114.695 25.6589C115.229 25.9667 115.863 26.1206 116.595 26.1206C117.081 26.1206 117.526 26.0522 117.93 25.9154C118.334 25.7786 118.68 25.5734 118.967 25.2999C119.255 25.0263 119.474 24.6912 119.624 24.2945L123.67 24.5612C123.465 25.5324 123.044 26.3805 122.407 27.1054C121.777 27.8235 120.963 28.3844 119.963 28.7879C118.97 29.1845 117.824 29.3829 116.523 29.3829Z" fill="black"/>
<path d="M126.003 34.9842C125.448 34.9842 124.928 34.9398 124.442 34.8508C123.963 34.7688 123.565 34.6628 123.251 34.5328L124.236 31.2705C124.75 31.4278 125.212 31.5133 125.623 31.527C126.04 31.5407 126.4 31.4449 126.701 31.2397C127.009 31.0346 127.259 30.6858 127.45 30.1933L127.707 29.5265L122.049 13.3175H126.649L129.915 24.8895H130.079L133.375 13.3175H138.006L131.876 30.7781C131.582 31.6262 131.181 32.3648 130.675 32.994C130.175 33.63 129.542 34.119 128.775 34.461C128.008 34.8098 127.084 34.9842 126.003 34.9842Z" fill="black"/>
</svg>
