<svg width="388" height="56" viewBox="0 0 388 56" fill="none" xmlns="http://www.w3.org/2000/svg">
<path d="M68 7.34533H77.577L86.7986 25.0255H87.1935L96.4151 7.34533H105.992L91.2416 33.8856V48.3986H82.7506V33.8856L68 7.34533Z" fill="black"/>
<path d="M112.413 49C109.293 49 106.607 48.3585 104.356 47.0756C102.118 45.7793 100.394 43.9485 99.1826 41.5831C97.9715 39.2044 97.3659 36.3913 97.3659 33.144C97.3659 29.9768 97.9715 27.1971 99.1826 24.805C100.394 22.4129 102.098 20.5487 104.297 19.2123C106.509 17.8759 109.102 17.2077 112.077 17.2077C114.078 17.2077 115.941 17.5352 117.665 18.19C119.403 18.8314 120.917 19.8003 122.207 21.0966C123.51 22.3929 124.524 24.0232 125.248 25.9877C125.972 27.9388 126.334 30.224 126.334 32.8433V35.1886H100.723V29.8966H118.416C118.416 28.6671 118.152 27.578 117.626 26.6292C117.099 25.6803 116.369 24.9386 115.434 24.4041C114.512 23.8562 113.44 23.5822 112.215 23.5822C110.938 23.5822 109.806 23.8829 108.819 24.4843C107.845 25.0723 107.081 25.8674 106.528 26.8697C105.975 27.8586 105.692 28.9611 105.679 30.1772V35.2087C105.679 36.7321 105.956 38.0484 106.509 39.1576C107.075 40.2668 107.871 41.1221 108.898 41.7235C109.925 42.3248 111.142 42.6255 112.551 42.6255C113.486 42.6255 114.341 42.4919 115.118 42.2246C115.895 41.9573 116.559 41.5564 117.112 41.0219C117.665 40.4873 118.087 39.8325 118.376 39.0574L126.156 39.5786C125.761 41.4762 124.952 43.1333 123.727 44.5499C122.516 45.9531 120.95 47.0489 119.028 47.8374C117.119 48.6125 114.914 49 112.413 49Z" fill="black"/>
<path d="M134.912 48.98C132.977 48.98 131.252 48.6392 129.738 47.9576C128.224 47.2627 127.026 46.2404 126.144 44.8907C125.276 43.5276 124.841 41.8304 124.841 39.7991C124.841 38.0885 125.15 36.6519 125.769 35.4893C126.388 34.3267 127.23 33.3912 128.297 32.6829C129.363 31.9746 130.574 31.4401 131.93 31.0793C133.299 30.7185 134.734 30.4645 136.235 30.3175C137.999 30.1304 139.421 29.9567 140.5 29.7964C141.58 29.6226 142.363 29.3687 142.85 29.0346C143.337 28.7005 143.581 28.2061 143.581 27.5513V27.431C143.581 26.1614 143.186 25.1792 142.396 24.4843C141.619 23.7894 140.513 23.4419 139.078 23.4419C137.564 23.4419 136.36 23.7827 135.465 24.4642C134.57 25.1324 133.977 25.9743 133.688 26.99L125.907 26.3485C126.302 24.4776 127.079 22.8606 128.238 21.4975C129.396 20.121 130.89 19.0653 132.72 18.3303C134.563 17.5819 136.696 17.2077 139.118 17.2077C140.803 17.2077 142.415 17.4082 143.956 17.8091C145.509 18.21 146.885 18.8314 148.083 19.6733C149.294 20.5153 150.248 21.5977 150.946 22.9207C151.644 24.2304 151.992 25.8006 151.992 27.6314V48.3986H144.015V44.1289H143.778C143.291 45.0911 142.639 45.9397 141.823 46.6747C141.007 47.3964 140.026 47.9643 138.881 48.3786C137.736 48.7795 136.413 48.98 134.912 48.98ZM137.321 43.0866C138.558 43.0866 139.651 42.8393 140.599 42.3449C141.547 41.8371 142.29 41.1555 142.83 40.3002C143.37 39.445 143.64 38.4761 143.64 37.3936V34.1262C143.376 34.2999 143.014 34.4603 142.554 34.6073C142.106 34.7409 141.599 34.8679 141.033 34.9882C140.467 35.0951 139.901 35.1953 139.335 35.2888C138.769 35.369 138.256 35.4425 137.795 35.5093C136.807 35.6563 135.945 35.8902 135.208 36.2109C134.471 36.5317 133.898 36.966 133.49 37.5139C133.082 38.0484 132.878 38.7166 132.878 39.5184C132.878 40.6811 133.293 41.5698 134.122 42.1845C134.964 42.7859 136.031 43.0866 137.321 43.0866Z" fill="black"/>
<path d="M152.958 48.3986V17.6087H161.113V22.9809H161.429C161.982 21.0699 162.91 19.6266 164.214 18.651C165.517 17.6621 167.018 17.1677 168.716 17.1677C169.137 17.1677 169.591 17.1944 170.078 17.2478C170.565 17.3013 170.993 17.3748 171.362 17.4683V25.0456C170.967 24.9253 170.421 24.8184 169.723 24.7248C169.025 24.6313 168.387 24.5845 167.807 24.5845C166.57 24.5845 165.464 24.8585 164.49 25.4064C163.529 25.9409 162.765 26.6893 162.199 27.6515C161.647 28.6137 161.37 29.7229 161.37 30.979V48.3986H152.958Z" fill="black"/>
<path d="M186.168 7.34533V48.3986H177.617V7.34533H186.168Z" fill="black"/>
<path d="M195.896 30.5982V48.3986H187.484V17.6087H195.501V23.041H195.856C196.528 21.2503 197.653 19.8337 199.233 18.7913C200.813 17.7356 202.728 17.2077 204.979 17.2077C207.085 17.2077 208.922 17.6755 210.488 18.6109C212.055 19.5464 213.273 20.8828 214.141 22.62C215.01 24.344 215.445 26.402 215.445 28.7941V48.3986H207.033V30.3175C207.046 28.4333 206.572 26.9632 205.611 25.9075C204.65 24.8384 203.327 24.3039 201.642 24.3039C200.51 24.3039 199.509 24.5511 198.641 25.0456C197.785 25.54 197.113 26.2617 196.626 27.2105C196.152 28.1459 195.909 29.2752 195.896 30.5982Z" fill="black"/>
<path d="M223.981 48.3986V7.34533H239.936C242.99 7.34533 245.597 7.89993 247.756 9.00911C249.928 10.1049 251.58 11.6618 252.712 13.6797C253.857 15.6843 254.43 18.043 254.43 20.7558C254.43 23.482 253.851 25.8273 252.692 27.7918C251.534 29.7429 249.856 31.2396 247.657 32.282C245.472 33.3244 242.826 33.8456 239.719 33.8456H229.036V26.8697H238.337C239.969 26.8697 241.325 26.6425 242.405 26.1882C243.484 25.7338 244.287 25.0522 244.814 24.1435C245.353 23.2348 245.623 22.1055 245.623 20.7558C245.623 19.3927 245.353 18.2434 244.814 17.308C244.287 16.3725 243.477 15.6642 242.385 15.1831C241.305 14.6887 239.943 14.4415 238.297 14.4415H232.531V48.3986H223.981ZM245.821 29.7162L255.872 48.3986H246.433L236.599 29.7162H245.821Z" fill="black"/>
<path d="M268.088 49C264.968 49 262.282 48.3585 260.031 47.0756C257.793 45.7793 256.069 43.9485 254.858 41.5831C253.647 39.2044 253.041 36.3913 253.041 33.144C253.041 29.9768 253.647 27.1971 254.858 24.805C256.069 22.4129 257.774 20.5487 259.972 19.2123C262.184 17.8759 264.777 17.2077 267.752 17.2077C269.753 17.2077 271.616 17.5352 273.34 18.19C275.078 18.8314 276.592 19.8003 277.882 21.0966C279.185 22.3929 280.199 24.0232 280.923 25.9877C281.647 27.9388 282.009 30.224 282.009 32.8433V35.1886H256.398V29.8966H274.091C274.091 28.6671 273.827 27.578 273.301 26.6292C272.774 25.6803 272.044 24.9386 271.109 24.4041C270.187 23.8562 269.115 23.5822 267.89 23.5822C266.613 23.5822 265.481 23.8829 264.494 24.4843C263.52 25.0723 262.756 25.8674 262.203 26.8697C261.65 27.8586 261.367 28.9611 261.354 30.1772V35.2087C261.354 36.7321 261.631 38.0484 262.184 39.1576C262.75 40.2668 263.546 41.1221 264.573 41.7235C265.6 42.3248 266.817 42.6255 268.226 42.6255C269.161 42.6255 270.016 42.4919 270.793 42.2246C271.57 41.9573 272.235 41.5564 272.787 41.0219C273.34 40.4873 273.762 39.8325 274.051 39.0574L281.831 39.5786C281.436 41.4762 280.627 43.1333 279.402 44.5499C278.191 45.9531 276.625 47.0489 274.703 47.8374C272.794 48.6125 270.589 49 268.088 49Z" fill="black"/>
<path d="M309.4 17.6087L298.796 48.3986H289.318L278.714 17.6087H287.6L293.899 39.6387H294.215L300.495 17.6087H309.4Z" fill="black"/>
<path d="M308.144 48.3986V17.6087H316.556V48.3986H308.144ZM312.37 13.6396C311.12 13.6396 310.047 13.2187 309.151 12.3768C308.269 11.5215 307.828 10.4992 307.828 9.3098C307.828 8.13379 308.269 7.12483 309.151 6.28292C310.047 5.42764 311.12 5 312.37 5C313.621 5 314.687 5.42764 315.569 6.28292C316.464 7.12483 316.912 8.13379 316.912 9.3098C316.912 10.4992 316.464 11.5215 315.569 12.3768C314.687 13.2187 313.621 13.6396 312.37 13.6396Z" fill="black"/>
<path d="M331.557 49C328.437 49 325.751 48.3585 323.5 47.0756C321.262 45.7793 319.538 43.9485 318.327 41.5831C317.116 39.2044 316.51 36.3913 316.51 33.144C316.51 29.9768 317.116 27.1971 318.327 24.805C319.538 22.4129 321.243 20.5487 323.441 19.2123C325.653 17.8759 328.246 17.2077 331.221 17.2077C333.222 17.2077 335.085 17.5352 336.809 18.19C338.547 18.8314 340.061 19.8003 341.351 21.0966C342.654 22.3929 343.668 24.0232 344.392 25.9877C345.116 27.9388 345.478 30.224 345.478 32.8433V35.1886H319.867V29.8966H337.56C337.56 28.6671 337.296 27.578 336.77 26.6292C336.243 25.6803 335.513 24.9386 334.578 24.4041C333.656 23.8562 332.584 23.5822 331.359 23.5822C330.082 23.5822 328.95 23.8829 327.963 24.4843C326.989 25.0723 326.225 25.8674 325.672 26.8697C325.119 27.8586 324.836 28.9611 324.823 30.1772V35.2087C324.823 36.7321 325.1 38.0484 325.653 39.1576C326.219 40.2668 327.015 41.1221 328.042 41.7235C329.069 42.3248 330.286 42.6255 331.695 42.6255C332.63 42.6255 333.485 42.4919 334.262 42.2246C335.039 41.9573 335.704 41.5564 336.256 41.0219C336.809 40.4873 337.231 39.8325 337.52 39.0574L345.3 39.5786C344.905 41.4762 344.096 43.1333 342.871 44.5499C341.66 45.9531 340.094 47.0489 338.172 47.8374C336.263 48.6125 334.058 49 331.557 49Z" fill="black"/>
<path d="M351.173 48.3986L342.919 17.6087H351.43L356.129 38.2957H356.406L361.303 17.6087H369.656L374.632 38.1754H374.888L379.509 17.6087H388L379.766 48.3986H370.86L365.647 29.0346H365.272L360.059 48.3986H351.173Z" fill="black"/>
<path fill-rule="evenodd" clip-rule="evenodd" d="M28 56C43.464 56 56 43.464 56 28C56 12.536 43.464 0 28 0C12.536 0 0 12.536 0 28C0 43.464 12.536 56 28 56ZM28 28.0001C33.1546 28.0001 37.3333 23.8214 37.3333 18.6668C37.3333 13.5121 33.1546 9.33345 28 9.33345C22.8453 9.33345 18.6666 13.5121 18.6666 18.6668C18.6666 23.8214 22.8453 28.0001 28 28.0001Z" fill="#D74040"/>
</svg>
